{
  "asset": {
    "version": "2.0",
    "generator": "THREE.GLTFExporter"
  },
  "scenes": [
    {
      "name": "AuxScene",
      "nodes": [
        1
      ]
    }
  ],
  "scene": 0,
  "nodes": [
    {
      "name": "Mesh_Mesh_head_geo.001_lambert2SG.001",
      "mesh": 0
    },
    {
      "matrix": [
        1.5,
        0,
        0,
        0,
        0,
        1.5,
        0,
        0,
        0,
        0,
        1.5,
        0,
        400,
        0,
        0,
        1
      ],
      "children": [
        0
      ]
    }
  ],
  "bufferViews": [
    {
      "buffer": 0,
      "byteOffset": 0,
      "byteLength": 581760,
      "target": 34962,
      "byteStride": 12
    },
    {
      "buffer": 0,
      "byteOffset": 581760,
      "byteLength": 581760,
      "target": 34962,
      "byteStride": 12
    }
  ],
  "buffers": [
    {
      "byteLength": 1163520,
      "uri": "data:application/octet-stream;base64,"
    }
  ],
  "accessors": [
    {
      "bufferView": 0,
      "componentType": 5126,
      "count": 48480,
      "max": [
        28.16547393798828,
        75.8121337890625,
        26.041017532348633
      ],
      "min": [
        -28.17205238342285,
        -2.8307740688323975,
        -31.3985595703125
      ],
      "type": "VEC3"
    },
    {
      "bufferView": 1,
      "componentType": 5126,
      "count": 48480,
      "max": [
        0.9999390244483948,
        0.9999690055847168,
        0.9996340274810791
      ],
      "min": [
        -0.9999390244483948,
        -0.9959719777107239,
        -0.9999690055847168
      ],
      "type": "VEC3"
    }
  ],
  "materials": [
    {
      "pbrMetallicRoughness": {
        "metallicFactor": 0.5,
        "roughnessFactor": 0.5
      },
      "name": "lambert2SG.001"
    }
  ],
  "meshes": [
    {
      "primitives": [
        {
          "mode": 4,
          "attributes": {
            "POSITION": 0,
            "NORMAL": 1
          },
          "material": 0
        }
      ]
    }
  ]
}